<svg width="23" height="23" viewBox="0 0 23 23" fill="none" xmlns="http://www.w3.org/2000/svg">
<path d="M22.2381 11.2556C21.3927 9.06893 19.9251 7.17788 18.0167 5.81619C16.1083 4.45449 13.8427 3.68185 11.4999 3.59375C9.15718 3.68185 6.89159 4.45449 4.98318 5.81619C3.07476 7.17788 1.60718 9.06893 0.761813 11.2556C0.704721 11.4135 0.704721 11.5865 0.761813 11.7444C1.60718 13.9311 3.07476 15.8221 4.98318 17.1838C6.89159 18.5455 9.15718 19.3182 11.4999 19.4062C13.8427 19.3182 16.1083 18.5455 18.0167 17.1838C19.9251 15.8221 21.3927 13.9311 22.2381 11.7444C22.2952 11.5865 22.2952 11.4135 22.2381 11.2556ZM11.4999 17.9688C7.69056 17.9688 3.66556 15.1441 2.2065 11.5C3.66556 7.85594 7.69056 5.03125 11.4999 5.03125C15.3093 5.03125 19.3343 7.85594 20.7934 11.5C19.3343 15.1441 15.3093 17.9688 11.4999 17.9688Z" fill="#01B763"/>
<path d="M11.5 7.1875C10.6471 7.1875 9.81329 7.44042 9.1041 7.91429C8.39492 8.38815 7.84217 9.06167 7.51577 9.84968C7.18937 10.6377 7.10397 11.5048 7.27037 12.3413C7.43676 13.1779 7.84749 13.9463 8.4506 14.5494C9.05372 15.1525 9.82213 15.5632 10.6587 15.7296C11.4952 15.896 12.3623 15.8106 13.1503 15.4842C13.9383 15.1578 14.6119 14.6051 15.0857 13.8959C15.5596 13.1867 15.8125 12.3529 15.8125 11.5C15.8125 10.3563 15.3582 9.25935 14.5494 8.4506C13.7406 7.64185 12.6437 7.1875 11.5 7.1875ZM11.5 14.375C10.9314 14.375 10.3755 14.2064 9.90274 13.8905C9.42995 13.5746 9.06145 13.1256 8.84385 12.6002C8.62625 12.0749 8.56931 11.4968 8.68024 10.9391C8.79118 10.3814 9.06499 9.86914 9.46707 9.46707C9.86915 9.06499 10.3814 8.79117 10.9391 8.68024C11.4968 8.56931 12.0749 8.62624 12.6002 8.84385C13.1256 9.06145 13.5746 9.42994 13.8905 9.90274C14.2064 10.3755 14.375 10.9314 14.375 11.5C14.375 12.2625 14.0721 12.9938 13.5329 13.5329C12.9938 14.0721 12.2625 14.375 11.5 14.375Z" fill="#01B763"/>
</svg>
