<svg width="32" height="32" viewBox="0 0 32 32" fill="none" xmlns="http://www.w3.org/2000/svg">
<path d="M18.8933 18.28L20.76 15.0533C20.88 14.8533 20.8266 14.6 20.6533 14.4533L18.68 12.9066C18.72 12.6133 18.7466 12.3066 18.7466 12C18.7466 11.6933 18.72 11.3866 18.68 11.08L20.6533 9.53329C20.8266 9.38663 20.88 9.13329 20.76 8.93329L18.8933 5.70663C18.7733 5.50663 18.5333 5.42663 18.32 5.50663L16 6.43996C15.52 6.06663 15 5.75996 14.4266 5.51996L14.08 3.05329C14.0576 2.94546 13.9992 2.84843 13.9144 2.77817C13.8296 2.7079 13.7234 2.66857 13.6133 2.66663H9.87996C9.6533 2.66663 9.4533 2.83996 9.4133 3.06663L9.06663 5.53329C8.50663 5.77329 7.9733 6.07996 7.4933 6.45329L5.1733 5.51996C4.95996 5.43996 4.71996 5.51996 4.59996 5.71996L2.7333 8.94663C2.6133 9.14663 2.66663 9.39996 2.83996 9.54663L4.8133 11.0933C4.7733 11.3866 4.74663 11.6933 4.74663 12C4.74663 12.3066 4.7733 12.6133 4.8133 12.92L2.83996 14.4666C2.66663 14.6133 2.6133 14.8666 2.7333 15.0666L4.59996 18.2933C4.71996 18.4933 4.95996 18.5733 5.1733 18.4933L7.4933 17.56C7.9733 17.9333 8.4933 18.24 9.06663 18.48L9.4133 20.9466C9.4533 21.16 9.6533 21.3333 9.87996 21.3333H13.6133C13.84 21.3333 14.04 21.16 14.08 20.9333L14.4266 18.4666C14.9866 18.2266 15.52 17.92 16 17.5466L18.32 18.48C18.5333 18.56 18.7733 18.48 18.8933 18.28ZM11.7466 14.6666C10.28 14.6666 9.07996 13.4666 9.07996 12C9.07996 10.5333 10.28 9.33329 11.7466 9.33329C13.2133 9.33329 14.4133 10.5333 14.4133 12C14.4133 13.4666 13.2133 14.6666 11.7466 14.6666ZM29.2266 24.8933L27.9466 23.9066C27.9733 23.72 28 23.52 28 23.32C28 23.12 27.9866 22.92 27.9466 22.7333L29.2133 21.7466C29.32 21.6533 29.36 21.4933 29.28 21.36L28.08 19.2933C28.0133 19.16 27.8533 19.12 27.7066 19.16L26.2266 19.76C25.92 19.52 25.5866 19.32 25.2133 19.1733L24.9866 17.6C24.9814 17.5287 24.9498 17.4619 24.898 17.4127C24.8463 17.3634 24.7781 17.3351 24.7066 17.3333H22.32C22.1733 17.3333 22.04 17.44 22.0266 17.5866L21.8 19.16C21.44 19.32 21.0933 19.5066 20.7866 19.7466L19.3066 19.1466C19.2387 19.1211 19.1639 19.1204 19.0955 19.1449C19.0272 19.1693 18.9697 19.2171 18.9333 19.28L17.7333 21.3466C17.6666 21.48 17.68 21.64 17.8 21.7333L19.0666 22.72C19.0116 23.1091 19.0116 23.5041 19.0666 23.8933L17.8 24.88C17.6933 24.9733 17.6533 25.1333 17.7333 25.2666L18.9333 27.3333C19 27.4666 19.16 27.5066 19.3066 27.4666L20.7866 26.8666C21.0933 27.1066 21.4266 27.3066 21.8 27.4533L22.0266 29.0266C22.0533 29.1733 22.1733 29.28 22.32 29.28H24.7066C24.8533 29.28 24.9866 29.1733 25 29.0266L25.2266 27.4533C25.5866 27.2933 25.9333 27.1066 26.2266 26.8666L27.72 27.4666C27.8533 27.52 28.0133 27.4666 28.0933 27.3333L29.2933 25.2666C29.3733 25.1466 29.3333 24.9866 29.2266 24.8933ZM23.5066 25.1066C23.0291 25.1064 22.5711 24.9166 22.2336 24.5788C21.896 24.2409 21.7065 23.7829 21.7066 23.3053C21.7068 22.8277 21.8967 22.3698 22.2345 22.0322C22.5723 21.6947 23.0304 21.5051 23.508 21.5053C23.9855 21.5055 24.4435 21.6954 24.781 22.0332C25.1186 22.371 25.3081 22.8291 25.308 23.3066C25.3078 23.7842 25.1179 24.2421 24.7801 24.5797C24.4423 24.9173 23.9842 25.1068 23.5066 25.1066Z" fill="#A012F5"/>
</svg>
