<svg width="33" height="29" viewBox="0 0 33 29" fill="none" xmlns="http://www.w3.org/2000/svg">
<g clip-path="url(#clip0_119_152)">
<path d="M21.75 21.8243V20.329C23.7474 19.2034 25.375 16.3995 25.375 13.5938C25.375 9.08969 25.375 5.4375 19.9375 5.4375C14.5 5.4375 14.5 9.08969 14.5 13.5938C14.5 16.3995 16.1276 19.2034 18.125 20.329V21.8243C11.977 22.3264 7.25 25.3478 7.25 29H32.625C32.625 25.3478 27.898 22.3264 21.75 21.8243Z" fill="#A012F5"/>
<path d="M9.2655 22.5243C10.8315 21.5002 12.7799 20.7226 14.9241 20.2478C14.4875 19.7299 14.1032 19.1701 13.7768 18.5766C12.9265 17.0534 12.474 15.3403 12.4609 13.5959C12.4609 11.1599 12.4609 8.85801 13.3273 6.97482C14.1683 5.14782 15.6817 4.01501 17.8368 3.59089C17.3583 1.42495 16.0823 0.00213623 12.6875 0.00213623C7.25 0.00213623 7.25 3.65432 7.25 8.15839C7.25 10.9641 8.87762 13.7681 10.875 14.8936V16.3889C4.727 16.891 0 19.9125 0 23.5646H7.90069C8.31213 23.1985 8.76706 22.8523 9.2655 22.5261V22.5243Z" fill="#A012F5"/>
</g>
<defs>
<clipPath id="clip0_119_152">
<rect width="32.625" height="29" fill="white"/>
</clipPath>
</defs>
</svg>
