<svg xmlns="http://www.w3.org/2000/svg" width="9.459" height="10.81" viewBox="0 0 9.459 10.81">
  <path id="trash" d="M.676,9.8A1.013,1.013,0,0,0,1.689,10.81H7.77A1.013,1.013,0,0,0,8.783,9.8V2.7H.676ZM6.419,4.392a.338.338,0,1,1,.676,0V9.121a.338.338,0,1,1-.676,0Zm-2.027,0a.338.338,0,1,1,.676,0V9.121a.338.338,0,1,1-.676,0Zm-2.027,0a.338.338,0,0,1,.676,0V9.121a.338.338,0,1,1-.676,0ZM9.121.676H6.587l-.2-.395A.507.507,0,0,0,5.935,0H3.522A.5.5,0,0,0,3.07.281l-.2.395H.338A.338.338,0,0,0,0,1.013v.676a.338.338,0,0,0,.338.338H9.121a.338.338,0,0,0,.338-.338V1.013A.338.338,0,0,0,9.121.676Z" fill="#ff8282"/>
</svg>
